<svg version="1.1" id="Layer_1" xmlns="http://www.w3.org/2000/svg" xmlns:xlink="http://www.w3.org/1999/xlink" x="0px" y="0px"
	 width="100%" viewBox="0 0 500 500" enable-background="new 0 0 500 500" xml:space="preserve">
<path fill="#000000" opacity="1.000000" stroke="none" 
	d="
M501.000000,211.000000 
	C501.000000,307.626709 501.000000,404.253448 501.000000,500.940063 
	C334.442169,500.940063 167.884308,500.940063 1.000000,500.940063 
	C1.000000,414.311584 1.000000,327.622772 1.257064,240.132385 
	C2.171849,240.236725 2.962074,241.074570 3.467595,242.058655 
	C12.197452,259.053101 22.787701,274.658630 37.042252,287.586914 
	C48.010590,297.534760 60.487316,305.301666 74.054642,310.839142 
	C99.274742,321.132690 126.114548,323.968475 153.002991,325.957062 
	C169.836411,327.201996 186.731354,327.664581 203.546570,329.092255 
	C220.909546,330.566437 237.783737,334.157104 252.737656,343.922394 
	C253.698837,344.550018 255.126404,344.463440 256.337006,344.709106 
	C249.704895,333.727570 241.830582,324.615692 232.382370,316.663055 
	C219.755142,306.034637 205.740356,297.722656 190.796875,291.220306 
	C179.751495,286.414185 168.028671,282.958374 156.352707,279.862549 
	C143.079132,276.343109 129.573044,273.621796 116.069115,271.078766 
	C107.715782,269.505707 99.178223,268.910980 90.723366,267.877075 
	C92.231728,266.616699 93.777390,266.047150 95.313110,266.072784 
	C110.424355,266.325043 125.638130,265.694092 140.613968,267.282562 
	C154.866653,268.794342 169.032242,272.028961 182.943207,275.635803 
	C200.994537,280.316162 217.785843,288.441223 234.567642,297.135620 
	C235.829544,297.271606 237.634140,297.488159 237.826172,297.029541 
	C240.146469,291.487915 242.396271,285.903839 244.338501,280.219452 
	C248.569534,267.836304 252.681442,255.402313 251.890289,241.613647 
	C251.920441,240.146896 251.888947,239.077606 251.911346,237.562180 
	C251.964798,235.283295 252.278503,233.385757 251.915924,231.627716 
	C247.793274,211.638397 243.300598,191.721283 239.476196,171.676224 
	C237.419144,160.894363 235.270721,149.895889 235.334167,139.007812 
	C235.400620,127.604263 237.097214,115.974388 239.857834,104.885727 
	C242.890411,92.704597 247.949463,81.027977 252.108109,69.099220 
	C252.090637,69.066895 252.030594,69.109215 252.265244,69.014801 
	C252.630051,68.630013 252.760208,68.339638 253.013672,67.770050 
	C253.573105,66.607529 254.009232,65.724205 254.598724,64.685333 
	C254.752075,64.529778 254.510513,64.165756 254.721512,64.064644 
	C255.049911,63.675293 255.131195,63.377213 255.453217,62.860718 
	C258.938110,56.871513 262.146149,51.090881 265.518555,45.495907 
	C265.682922,45.681561 266.038757,46.026993 265.982178,46.388893 
	C261.007568,58.972591 254.949951,70.882004 251.490036,83.503525 
	C247.989014,96.274902 246.283417,109.687187 245.192261,122.934128 
	C243.712662,140.896835 248.550629,158.145676 254.484268,174.878876 
	C260.853302,192.839951 267.918884,210.556030 271.684784,229.316360 
	C275.091614,246.288025 275.322235,263.360779 271.812744,280.312561 
	C270.092712,288.620972 267.331451,296.713837 264.906097,305.388275 
	C276.144440,300.199738 285.906586,293.072998 295.292999,284.822113 
	C300.390320,282.074799 304.990051,279.051270 309.903961,276.678223 
	C322.436157,270.626129 334.729156,263.752502 347.826324,259.283966 
	C362.330231,254.335464 377.524933,251.207794 392.604736,248.228104 
	C401.596893,246.451294 410.946381,246.482864 420.135254,245.701492 
	C418.246765,247.113205 416.206360,247.453934 414.214020,247.977509 
	C403.433960,250.810455 392.528870,253.263229 381.932922,256.673645 
	C371.810120,259.931793 361.889954,263.914001 352.101440,268.094757 
	C336.472076,274.770203 321.083160,282.151123 307.812622,292.884308 
	C298.155548,300.694885 288.713287,309.041260 280.561005,318.360931 
	C273.404480,326.542297 268.152679,336.394745 262.174286,345.583710 
	C261.935455,345.950806 262.877319,347.086090 263.377319,348.078278 
	C275.633881,336.165405 290.428802,329.346283 306.198853,325.238586 
	C324.250946,320.536438 342.738617,317.530701 360.967377,313.474823 
	C375.156799,310.317688 389.339539,307.042755 403.345154,303.168945 
	C422.429993,297.890259 439.880188,289.044312 455.504852,276.838135 
	C466.368195,268.351501 475.905243,258.367340 482.668945,246.407272 
	C488.932190,235.332092 493.656006,223.387695 499.133820,211.862228 
	C499.359863,211.386612 500.360321,211.279037 501.000000,211.000000 
M176.407135,349.947784 
	C190.177551,342.447510 205.349670,340.342499 220.725510,339.061218 
	C209.058731,333.552948 196.879059,333.374756 184.728531,334.058899 
	C173.600601,334.685455 163.403473,338.575134 153.456924,343.728943 
	C130.916779,355.408051 116.132950,373.765594 105.840866,396.401672 
	C104.408531,399.551880 105.836739,399.865570 108.206863,399.992462 
	C126.109657,400.951019 143.343079,398.670807 159.767349,390.791534 
	C173.504364,384.201385 185.045212,374.766479 195.836075,364.369415 
	C200.577301,359.801208 204.181763,354.053162 208.302368,348.840820 
	C208.021393,348.249664 207.740417,347.658508 207.459427,347.067352 
	C194.351379,349.709778 181.243317,352.352203 168.135254,354.994629 
	C168.029160,354.815521 167.923065,354.636444 167.816971,354.457336 
	C170.428024,352.991394 173.039078,351.525452 176.407135,349.947784 
M400.459747,352.955414 
	C399.159302,351.988220 397.736511,351.148224 396.577850,350.033661 
	C387.554504,341.353729 376.718903,335.492249 365.235443,331.093262 
	C350.109680,325.299042 334.222778,324.251373 318.365387,327.202087 
	C311.309814,328.514984 304.607178,331.724487 297.744324,334.073151 
	C297.882446,334.715424 298.020569,335.357727 298.158661,336.000031 
	C307.410126,336.000031 316.743805,335.234406 325.889679,336.217041 
	C334.896271,337.184692 344.305359,338.113922 351.900726,344.206573 
	C338.668793,344.357574 325.668793,339.599274 312.222473,343.344757 
	C345.098572,380.072632 391.535004,389.630829 422.039642,378.890381 
	C414.845032,370.197266 407.913544,361.822113 400.459747,352.955414 
z"/>
<path fill="#000000" opacity="1.000000" stroke="none" 
	d="
M0.999999,238.000000 
	C1.000000,159.066238 1.000000,80.132477 1.000000,1.000000 
	C95.687469,1.000000 190.375076,1.000000 285.747681,1.324927 
	C283.089813,6.420320 279.634552,11.116546 276.424774,15.974966 
	C266.159973,31.512121 255.902496,47.055607 245.833160,62.719402 
	C243.146500,66.898758 241.142990,71.517265 238.518234,76.095886 
	C233.846176,84.529991 229.481720,92.802376 224.937469,101.373657 
	C223.831192,103.016296 222.644791,104.249382 222.018234,105.720856 
	C215.510635,121.003555 209.075363,136.317169 202.656235,151.637360 
	C197.480530,163.989944 195.131638,176.970474 195.075943,190.271103 
	C195.005066,207.194702 197.923462,223.695358 203.327942,239.763870 
	C205.094788,245.017090 206.420731,250.418564 207.618210,255.743332 
	C197.293610,248.511459 188.045303,239.786636 177.151337,234.374054 
	C153.512482,222.629227 128.027969,217.967941 101.525024,220.005859 
	C89.386734,220.939209 77.142334,221.229431 65.147446,223.101608 
	C50.620625,225.369003 36.271648,228.846619 21.916040,232.109924 
	C14.862210,233.713379 7.966992,236.014557 0.999999,238.000000 
z"/>
<path fill="#000000" opacity="1.000000" stroke="none" 
	d="
M288.000000,1.000000 
	C358.925446,1.000000 429.850891,1.000000 501.000000,1.000000 
	C501.000000,68.687393 501.000000,136.375046 500.547913,204.514801 
	C494.420441,204.491577 488.744934,204.017044 483.069580,203.540710 
	C468.753143,202.339142 454.436798,201.136719 439.891235,199.557556 
	C431.133301,199.162659 422.604553,199.144852 413.662537,199.200043 
	C408.366577,199.782883 403.443268,200.048920 398.609955,200.854675 
	C389.333313,202.401154 379.890594,203.518890 370.917267,206.170029 
	C360.279602,209.312881 349.905884,213.523666 339.727325,217.978821 
	C333.854828,220.549225 328.593384,224.515610 323.039673,227.430817 
	C323.389038,223.406265 323.662903,219.792267 324.138214,216.204971 
	C326.244415,200.309113 325.271271,184.446259 322.755829,168.750748 
	C320.250427,153.118027 316.368256,137.709824 310.014252,123.146416 
	C303.279602,107.710518 295.949677,92.533783 288.843262,77.260841 
	C284.675171,68.302856 281.332397,59.183193 280.947266,49.109646 
	C280.316284,32.607040 285.586975,17.024328 288.000000,1.000000 
z"/>
<path fill="#2BBAF0" opacity="1.000000" stroke="none" 
	d="
M0.999999,238.333313 
	C7.966992,236.014557 14.862210,233.713379 21.916040,232.109924 
	C36.271648,228.846619 50.620625,225.369003 65.147446,223.101608 
	C77.142334,221.229431 89.386734,220.939209 101.525024,220.005859 
	C128.027969,217.967941 153.512482,222.629227 177.151337,234.374054 
	C188.045303,239.786636 197.293610,248.511459 207.948273,255.895248 
	C217.192673,269.671539 225.776886,283.287018 234.361084,296.902496 
	C217.785843,288.441223 200.994537,280.316162 182.943207,275.635803 
	C169.032242,272.028961 154.866653,268.794342 140.613968,267.282562 
	C125.638130,265.694092 110.424355,266.325043 95.313110,266.072784 
	C93.777390,266.047150 92.231728,266.616699 90.723366,267.877075 
	C99.178223,268.910980 107.715782,269.505707 116.069115,271.078766 
	C129.573044,273.621796 143.079132,276.343109 156.352707,279.862549 
	C168.028671,282.958374 179.751495,286.414185 190.796875,291.220306 
	C205.740356,297.722656 219.755142,306.034637 232.382370,316.663055 
	C241.830582,324.615692 249.704895,333.727570 256.337006,344.709106 
	C255.126404,344.463440 253.698837,344.550018 252.737656,343.922394 
	C237.783737,334.157104 220.909546,330.566437 203.546570,329.092255 
	C186.731354,327.664581 169.836411,327.201996 153.002991,325.957062 
	C126.114548,323.968475 99.274742,321.132690 74.054642,310.839142 
	C60.487316,305.301666 48.010590,297.534760 37.042252,287.586914 
	C22.787701,274.658630 12.197452,259.053101 3.467595,242.058655 
	C2.962074,241.074570 2.171849,240.236725 1.257064,239.665405 
	C1.000000,239.555557 1.000000,239.111099 0.999999,238.333313 
z"/>
<path fill="#2BBAF0" opacity="1.000000" stroke="none" 
	d="
M323.056946,227.853683 
	C328.593384,224.515610 333.854828,220.549225 339.727325,217.978821 
	C349.905884,213.523666 360.279602,209.312881 370.917267,206.170029 
	C379.890594,203.518890 389.333313,202.401154 398.609955,200.854675 
	C403.443268,200.048920 408.366577,199.782883 414.009338,199.406677 
	C423.219757,199.671738 431.670074,199.803192 440.120392,199.934631 
	C454.436798,201.136719 468.753143,202.339142 483.069580,203.540710 
	C488.744934,204.017044 494.420441,204.491577 500.547913,204.983459 
	C501.000000,206.714355 501.000000,208.428711 501.000000,210.571533 
	C500.360321,211.279037 499.359863,211.386612 499.133820,211.862228 
	C493.656006,223.387695 488.932190,235.332092 482.668945,246.407272 
	C475.905243,258.367340 466.368195,268.351501 455.504852,276.838135 
	C439.880188,289.044312 422.429993,297.890259 403.345154,303.168945 
	C389.339539,307.042755 375.156799,310.317688 360.967377,313.474823 
	C342.738617,317.530701 324.250946,320.536438 306.198853,325.238586 
	C290.428802,329.346283 275.633881,336.165405 263.377319,348.078278 
	C262.877319,347.086090 261.935455,345.950806 262.174286,345.583710 
	C268.152679,336.394745 273.404480,326.542297 280.561005,318.360931 
	C288.713287,309.041260 298.155548,300.694885 307.812622,292.884308 
	C321.083160,282.151123 336.472076,274.770203 352.101440,268.094757 
	C361.889954,263.914001 371.810120,259.931793 381.932922,256.673645 
	C392.528870,253.263229 403.433960,250.810455 414.214020,247.977509 
	C416.206360,247.453934 418.246765,247.113205 420.135254,245.701492 
	C410.946381,246.482864 401.596893,246.451294 392.604736,248.228104 
	C377.524933,251.207794 362.330231,254.335464 347.826324,259.283966 
	C334.729156,263.752502 322.436157,270.626129 309.903961,276.678223 
	C304.990051,279.051270 300.390320,282.074799 295.305847,284.475281 
	C304.668152,272.443115 312.902374,259.872101 317.649353,245.282150 
	C319.531158,239.498444 321.259003,233.664673 323.056946,227.853683 
z"/>
<path fill="#43BB28" opacity="1.000000" stroke="none" 
	d="
M323.039673,227.430817 
	C321.259003,233.664673 319.531158,239.498444 317.649353,245.282150 
	C312.902374,259.872101 304.668152,272.443115 294.951355,284.495300 
	C285.906586,293.072998 276.144440,300.199738 264.906097,305.388275 
	C267.331451,296.713837 270.092712,288.620972 271.812744,280.312561 
	C275.322235,263.360779 275.091614,246.288025 271.684784,229.316360 
	C267.918884,210.556030 260.853302,192.839951 254.484268,174.878876 
	C248.550629,158.145676 243.712662,140.896835 245.192261,122.934128 
	C246.283417,109.687187 247.989014,96.274902 251.490036,83.503525 
	C254.949951,70.882004 261.007568,58.972591 266.278076,46.226234 
	C267.380493,44.024860 268.130493,42.348042 268.880524,40.671223 
	C268.618927,40.551777 268.357330,40.432331 268.095734,40.312881 
	C267.181885,41.978672 266.268036,43.644463 265.354187,45.310253 
	C262.146149,51.090881 258.938110,56.871513 255.282303,63.001564 
	C254.647278,63.591053 254.539276,63.862644 254.510513,64.165756 
	C254.510513,64.165756 254.752075,64.529778 254.252213,64.546616 
	C252.486313,65.211441 251.065536,65.667725 249.982269,66.542122 
	C246.200470,69.594765 242.535309,72.791908 238.825836,75.934158 
	C241.142990,71.517265 243.146500,66.898758 245.833160,62.719402 
	C255.902496,47.055607 266.159973,31.512121 276.424774,15.974966 
	C279.634552,11.116546 283.089813,6.420320 286.216370,1.324927 
	C286.444458,1.000000 286.888885,1.000000 287.666687,1.000000 
	C285.586975,17.024328 280.316284,32.607040 280.947266,49.109646 
	C281.332397,59.183193 284.675171,68.302856 288.843262,77.260841 
	C295.949677,92.533783 303.279602,107.710518 310.014252,123.146416 
	C316.368256,137.709824 320.250427,153.118027 322.755829,168.750748 
	C325.271271,184.446259 326.244415,200.309113 324.138214,216.204971 
	C323.662903,219.792267 323.389038,223.406265 323.039673,227.430817 
M307.775238,233.463898 
	C308.395142,228.952805 309.015045,224.441711 309.811310,219.017166 
	C310.687683,202.701538 310.202271,186.554550 304.135864,171.072266 
	C305.674347,186.768478 305.526215,202.379532 302.970642,218.728836 
	C302.101471,222.749420 301.232300,226.770004 300.073608,231.422318 
	C298.399200,236.605896 296.724792,241.789474 294.626160,247.562592 
	C290.418701,257.370300 286.211243,267.178009 281.830261,277.204315 
	C281.814240,277.362488 281.798218,277.520691 281.782166,277.678864 
	C281.839722,277.433929 281.897278,277.189026 282.623260,276.806183 
	C291.417419,269.953796 297.792816,261.295715 302.299042,250.348495 
	C304.036652,244.955460 305.774261,239.562408 307.775238,233.463898 
z"/>
<path fill="#42BB28" opacity="1.000000" stroke="none" 
	d="
M234.567642,297.135620 
	C225.776886,283.287018 217.192673,269.671539 208.278381,255.904144 
	C206.420731,250.418564 205.094788,245.017090 203.327942,239.763870 
	C197.923462,223.695358 195.005066,207.194702 195.075943,190.271103 
	C195.131638,176.970474 197.480530,163.989944 202.656235,151.637360 
	C209.075363,136.317169 215.510635,121.003555 222.018234,105.720856 
	C222.644791,104.249382 223.831192,103.016296 225.085663,101.639107 
	C222.941589,110.075516 220.469574,118.545380 217.997681,127.340881 
	C217.998047,128.100708 217.998291,128.534912 217.782959,129.286407 
	C214.348297,145.551956 212.516418,161.500443 213.745605,177.916260 
	C214.813538,192.178879 217.283768,205.927536 223.218842,218.862427 
	C228.852524,231.140503 236.983231,240.864471 251.828644,242.011124 
	C252.681442,255.402313 248.569534,267.836304 244.338501,280.219452 
	C242.396271,285.903839 240.146469,291.487915 237.826172,297.029541 
	C237.634140,297.488159 235.829544,297.271606 234.567642,297.135620 
z"/>
<path fill="#2CBBF0" opacity="1.000000" stroke="none" 
	d="
M176.028641,350.003662 
	C173.039078,351.525452 170.428024,352.991394 167.816971,354.457336 
	C167.923065,354.636444 168.029160,354.815521 168.135254,354.994629 
	C181.243317,352.352203 194.351379,349.709778 207.459427,347.067352 
	C207.740417,347.658508 208.021393,348.249664 208.302368,348.840820 
	C204.181763,354.053162 200.577301,359.801208 195.836075,364.369415 
	C185.045212,374.766479 173.504364,384.201385 159.767349,390.791534 
	C143.343079,398.670807 126.109657,400.951019 108.206863,399.992462 
	C105.836739,399.865570 104.408531,399.551880 105.840866,396.401672 
	C116.132950,373.765594 130.916779,355.408051 153.456924,343.728943 
	C163.403473,338.575134 173.600601,334.685455 184.728531,334.058899 
	C196.879059,333.374756 209.058731,333.552948 220.725510,339.061218 
	C205.349670,340.342499 190.177551,342.447510 176.028641,350.003662 
z"/>
<path fill="#2CBBF0" opacity="1.000000" stroke="none" 
	d="
M400.720917,353.201172 
	C407.913544,361.822113 414.845032,370.197266 422.039642,378.890381 
	C391.535004,389.630829 345.098572,380.072632 312.222473,343.344757 
	C325.668793,339.599274 338.668793,344.357574 351.900726,344.206573 
	C344.305359,338.113922 334.896271,337.184692 325.889679,336.217041 
	C316.743805,335.234406 307.410126,336.000031 298.158661,336.000031 
	C298.020569,335.357727 297.882446,334.715424 297.744324,334.073151 
	C304.607178,331.724487 311.309814,328.514984 318.365387,327.202087 
	C334.222778,324.251373 350.109680,325.299042 365.235443,331.093262 
	C376.718903,335.492249 387.554504,341.353729 396.577850,350.033661 
	C397.736511,351.148224 399.159302,351.988220 400.720917,353.201172 
z"/>
<path fill="#43BA28" opacity="1.000000" stroke="none" 
	d="
M217.998505,128.969101 
	C217.998291,128.534912 217.998047,128.100708 218.325745,127.205307 
	C219.688171,124.186913 221.001190,121.704445 221.710602,119.060043 
	C225.482224,105.000870 231.317947,91.880608 240.014450,80.220024 
	C243.264282,75.862541 245.948425,70.467140 252.125580,69.131546 
	C247.949463,81.027977 242.890411,92.704597 239.857834,104.885727 
	C237.097214,115.974388 235.400620,127.604263 235.334167,139.007812 
	C235.270721,149.895889 237.419144,160.894363 239.476196,171.676224 
	C243.300598,191.721283 247.793274,211.638397 251.915924,231.627716 
	C252.278503,233.385757 251.964798,235.283295 251.584579,237.717255 
	C245.392578,239.422791 240.913635,236.635788 236.753342,233.197647 
	C229.344894,227.075180 224.599915,219.113022 221.569061,210.122314 
	C213.444962,186.022797 213.454330,161.461151 217.552643,136.671753 
	C217.969788,134.148590 217.862457,131.538727 217.998505,128.969101 
z"/>
<path fill="#43AC29" opacity="1.000000" stroke="none" 
	d="
M217.782944,129.286407 
	C217.862457,131.538727 217.969788,134.148590 217.552643,136.671753 
	C213.454330,161.461151 213.444962,186.022797 221.569061,210.122314 
	C224.599915,219.113022 229.344894,227.075180 236.753342,233.197647 
	C240.913635,236.635788 245.392578,239.422791 251.530701,238.163391 
	C251.888947,239.077606 251.920441,240.146896 251.890289,241.613647 
	C236.983231,240.864471 228.852524,231.140503 223.218842,218.862427 
	C217.283768,205.927536 214.813538,192.178879 213.745605,177.916260 
	C212.516418,161.500443 214.348297,145.551956 217.782944,129.286407 
z"/>
<path fill="#43AC29" opacity="1.000000" stroke="none" 
	d="
M252.108093,69.099213 
	C245.948425,70.467140 243.264282,75.862541 240.014450,80.220024 
	C231.317947,91.880608 225.482224,105.000870 221.710602,119.060043 
	C221.001190,121.704445 219.688171,124.186913 218.325623,126.879669 
	C220.469574,118.545380 222.941589,110.075516 225.265427,101.340210 
	C229.481720,92.802376 233.846176,84.529991 238.518219,76.095879 
	C242.535309,72.791908 246.200470,69.594765 249.982269,66.542122 
	C251.065536,65.667725 252.486313,65.211441 254.098846,64.702164 
	C254.009232,65.724205 253.573105,66.607529 252.846527,67.925758 
	C252.358551,68.594482 252.183395,68.844002 252.030594,69.109215 
	C252.030594,69.109215 252.090637,69.066895 252.108093,69.099213 
z"/>
<path fill="#43BA28" opacity="1.000000" stroke="none" 
	d="
M252.265244,69.014801 
	C252.183395,68.844002 252.358551,68.594482 252.723236,68.204964 
	C252.760208,68.339638 252.630051,68.630013 252.265244,69.014801 
z"/>
<path fill="#43AC29" opacity="1.000000" stroke="none" 
	d="
M254.721512,64.064644 
	C254.539276,63.862644 254.647278,63.591053 255.005432,63.210136 
	C255.131195,63.377213 255.049911,63.675293 254.721512,64.064644 
z"/>
<path fill="#2CBBF0" opacity="1.000000" stroke="none" 
	d="
M439.891235,199.557556 
	C431.670074,199.803192 423.219757,199.671738 414.422607,199.333679 
	C422.604553,199.144852 431.133301,199.162659 439.891235,199.557556 
z"/>
<path fill="#D5E9C4" opacity="1.000000" stroke="none" 
	d="
M303.227264,217.960571 
	C305.526215,202.379532 305.674347,186.768478 304.135864,171.072266 
	C310.202271,186.554550 310.687683,202.701538 309.386414,219.451294 
	C307.050110,219.243790 305.138702,218.602188 303.227264,217.960571 
z"/>
<path fill="#9ACD72" opacity="1.000000" stroke="none" 
	d="
M301.919189,250.958664 
	C297.792816,261.295715 291.417419,269.953796 282.299927,276.888611 
	C281.976593,276.971069 282.003815,276.985718 282.003784,276.985718 
	C286.211243,267.178009 290.418701,257.370300 295.166046,247.348419 
	C297.777008,248.409058 299.848114,249.683868 301.919189,250.958664 
z"/>
<path fill="#B8DA9A" opacity="1.000000" stroke="none" 
	d="
M302.109131,250.653580 
	C299.848114,249.683868 297.777008,248.409058 295.378174,247.053650 
	C296.724792,241.789474 298.399200,236.605896 300.580872,231.279892 
	C303.229340,232.148102 305.370605,233.158737 307.511841,234.169357 
	C305.774261,239.562408 304.036652,244.955460 302.109131,250.653580 
z"/>
<path fill="#C3E0AB" opacity="1.000000" stroke="none" 
	d="
M307.643555,233.816620 
	C305.370605,233.158737 303.229340,232.148102 300.725616,230.964020 
	C301.232300,226.770004 302.101471,222.749420 303.098938,218.344696 
	C305.138702,218.602188 307.050110,219.243790 309.298248,219.908020 
	C309.015045,224.441711 308.395142,228.952805 307.643555,233.816620 
z"/>
<path fill="#000000" opacity="1.000000" stroke="none" 
	d="
M265.518555,45.495907 
	C266.268036,43.644463 267.181885,41.978672 268.095734,40.312881 
	C268.357330,40.432331 268.618927,40.551777 268.880524,40.671223 
	C268.130493,42.348042 267.380493,44.024860 266.334625,45.864334 
	C266.038757,46.026993 265.682922,45.681561 265.518555,45.495907 
z"/>
<path fill="#9ACD72" opacity="1.000000" stroke="none" 
	d="
M281.965729,276.957581 
	C281.897278,277.189026 281.839722,277.433929 281.782166,277.678864 
	C281.798218,277.520691 281.814240,277.362488 281.917053,277.095032 
	C282.003815,276.985718 281.976593,276.971069 281.965729,276.957581 
z"/>
</svg>